<?xml version="1.0" encoding="utf-8"?>
<!-- Generator: Adobe Illustrator 19.2.1, SVG Export Plug-In . SVG Version: 6.00 Build 0)  -->
<svg version="1.1" id="Layer_1" xmlns="http://www.w3.org/2000/svg" xmlns:xlink="http://www.w3.org/1999/xlink" x="0px" y="0px"
	 viewBox="0 0 100 100" style="enable-background:new 0 0 100 100;" xml:space="preserve">
<style type="text/css">
	.st0{fill:#FFFFFF;stroke:#000000;stroke-width:2;stroke-miterlimit:10;}
	.st1{fill:none;}
	.st2{font-family:'Zapfino';}
	.st3{font-size:26px;}
	.st4{fill:none;stroke:#000000;stroke-miterlimit:10;}
	.st5{fill:none;stroke:#000000;stroke-width:0.75;stroke-miterlimit:10;}
	.st6{fill:none;stroke:#000000;stroke-width:0.5;stroke-miterlimit:10;}
	.st7{fill:none;stroke:#000000;stroke-width:0.25;stroke-miterlimit:10;}
</style>
<polygon class="st0" points="50,1.5 92,25.8 92,74.2 50,98.5 8,74.2 8,25.8 "/>
<rect x="-6" y="21.8" class="st1" width="106" height="44.8"/>
<text transform="matrix(1 0 0 1 12.9222 65.6895)" class="st2 st3">ED</text>
<line class="st4" x1="19.2" y1="72" x2="79.8" y2="72"/>
<line class="st5" x1="35.9" y1="77" x2="64.1" y2="77"/>
<line class="st6" x1="41.4" y1="82" x2="58.6" y2="82"/>
<line class="st7" x1="45.9" y1="86.1" x2="54.1" y2="86.1"/>
<line class="st7" x1="45.9" y1="14.7" x2="54.1" y2="14.7"/>
<polygon class="st4" points="39.6,9.8 50,3.8 60.4,9.8 "/>
<polygon class="st4" points="60.4,90.2 50,96.2 39.6,90.2 "/>
<polygon class="st4" points="74.8,1.5 74.8,1.5 74.8,1.5 74.8,1.5 74.8,1.5 74.8,1.5 "/>
<line class="st4" x1="80.3" y1="28.3" x2="19.7" y2="28.3"/>
<line class="st5" x1="63.6" y1="23.3" x2="35.4" y2="23.3"/>
<line class="st6" x1="58.1" y1="18.3" x2="41" y2="18.3"/>
</svg>
